<?xml version="1.0" encoding="utf-8"?>
<!-- Generator: Adobe Illustrator 25.2.1, SVG Export Plug-In . SVG Version: 6.00 Build 0)  -->
<svg version="1.1" id="Layer_1" xmlns="http://www.w3.org/2000/svg" xmlns:xlink="http://www.w3.org/1999/xlink" x="0px" y="0px"
	 viewBox="0 0 400 400" style="enable-background:new 0 0 400 400;" xml:space="preserve">
<path d="M269.09,191.79c-5.68-18.87-12.32-27.68-16-32c-5.75-6.74-11.71-11.22-16-14c-24.67-0.33-49.33-0.67-74-1
	c-3.22,0.35-8.32,1.4-13,5c-2.18,1.68-3.84,3.59-8,10c-2.98,4.59-6.4,9.87-9,15c-9.04,17.84-13.64,44.84-14,47
	c-2.83,10.77,0.41,21.61,8,27c9,6.38,20.46,2.52,22,2c6.58-2.22,11.86-7.1,15-10c0.59-0.55,0.59-0.57,6-6c5.89-5.91,8.83-8.87,9-9
	c9.71-7.76,24.42-4.38,26-4c6.57,1.58,11.02,4.83,14,7c7.89,5.76,7.88,9.47,17,17c5.28,4.35,8.28,6.83,13,8
	c7.21,1.79,16.49,0.06,22-5C282.97,237.88,275.52,213.13,269.09,191.79z M177.59,189.79h-4.5v3.5c0,4.14-3.36,7.5-7.5,7.5
	s-7.5-3.36-7.5-7.5v-3.5h-3.5c-4.14,0-7.5-3.36-7.5-7.5c0-2.07,0.84-3.94,2.2-5.3c1.36-1.36,3.23-2.2,5.3-2.2h3.5v-4.5
	c0-4.14,3.36-7.5,7.5-7.5c2.07,0,3.94,0.84,5.3,2.2c1.36,1.36,2.2,3.23,2.2,5.3v4.5h4.5c4.14,0,7.5,3.36,7.5,7.5
	S181.73,189.79,177.59,189.79z M229.59,163.79c4.14,0,7.5,3.36,7.5,7.5s-3.36,7.5-7.5,7.5s-7.5-3.36-7.5-7.5
	S225.45,163.79,229.59,163.79z M217.59,190.79c-4.14,0-7.5-3.36-7.5-7.5s3.36-7.5,7.5-7.5s7.5,3.36,7.5,7.5
	S221.73,190.79,217.59,190.79z M229.59,201.79c-4.14,0-7.5-3.36-7.5-7.5s3.36-7.5,7.5-7.5s7.5,3.36,7.5,7.5
	S233.73,201.79,229.59,201.79z M241.59,190.79c-4.14,0-7.5-3.36-7.5-7.5s3.36-7.5,7.5-7.5s7.5,3.36,7.5,7.5
	S245.73,190.79,241.59,190.79z"/>
</svg>
